<svg width="256" height="256" viewBox="0 0 256 256" fill="none" xmlns="http://www.w3.org/2000/svg">
    <rect width="256" height="256" rx="24" fill="white"/>
    <path fill-rule="evenodd" clip-rule="evenodd" d="M141.666 173.495L173.085 181.914L192.144 110.787C200.33 80.2337 182.35 48.8695 151.983 40.7328C121.617 32.5961 90.3634 50.7682 82.1767 81.3212L63.1182 152.448L94.5374 160.867L88.1845 184.576C84.6759 197.671 92.3815 211.112 105.396 214.599C118.411 218.087 131.805 210.299 135.313 197.204L141.666 173.495ZM161.611 161.899L176.434 106.577C182.282 84.7538 169.438 62.3507 147.748 56.5388C126.058 50.7269 103.734 63.707 97.8863 85.5306L83.063 140.852L114.482 149.271L103.894 188.786C102.725 193.151 105.293 197.631 109.631 198.793C113.969 199.956 118.434 197.36 119.604 192.995L130.192 153.48L161.611 161.899Z" fill="#2EA4AB"/>
    <path fill-rule="evenodd" clip-rule="evenodd" d="M78.1788 156.484L94.5373 160.867L88.1845 184.576C84.6758 197.671 92.3814 211.112 105.396 214.599C118.411 218.087 131.805 210.299 135.313 197.204L141.666 173.495L173.085 181.914L192.144 110.787C194.039 103.713 194.532 96.5962 193.793 89.734L177.728 99.0091C177.537 101.522 177.11 104.054 176.434 106.577L161.611 161.899L130.192 153.48L119.604 192.995C118.434 197.36 113.969 199.956 109.631 198.793C105.293 197.631 102.724 193.151 103.894 188.786L114.482 149.271L98.2201 144.913L78.1788 156.484Z" fill="#5D5FEF"/>
    </svg>
    