<svg width="240" height="240" viewBox="0 0 240 240" fill="none" xmlns="http://www.w3.org/2000/svg">
    <rect width="240" height="240" rx="24" fill="white" />
    <path fill-rule="evenodd" clip-rule="evenodd" d="M133.046 166.384L164.465 174.803L183.524 103.676C191.71 73.1226 173.73 41.7584 143.363 33.6217C112.997 25.485 81.7437 43.6571 73.557 74.2101L54.4985 145.337L85.9177 153.756L79.5648 177.465C76.0562 190.56 83.7618 204.001 96.7763 207.488C109.791 210.976 123.185 203.188 126.694 190.093L133.046 166.384ZM152.991 154.788L167.814 99.4663C173.662 77.6427 160.818 55.2396 139.129 49.4277C117.438 43.6158 95.1142 56.5959 89.2666 78.4195L74.4433 133.741L105.862 142.16L95.2744 181.675C94.1048 186.04 96.6734 190.52 101.012 191.682C105.35 192.845 109.814 190.249 110.984 185.884L121.572 146.369L152.991 154.788Z" fill="#2EA4AB" />
    <path fill-rule="evenodd" clip-rule="evenodd" d="M69.5593 149.373L85.9178 153.756L79.565 177.465C76.0563 190.56 83.7619 204.001 96.7765 207.488C109.791 210.976 123.185 203.188 126.694 190.093L133.047 166.384L164.465 174.803L183.524 103.676C185.419 96.6021 185.912 89.4851 185.173 82.6229L169.108 91.898C168.917 94.4108 168.491 96.9424 167.814 99.4663L152.991 154.788L121.572 146.369L110.984 185.884C109.815 190.249 105.35 192.845 101.012 191.682C96.6735 190.52 94.105 186.039 95.2745 181.675L105.863 142.159L89.6005 137.802L69.5593 149.373Z" fill="#5D5FEF" />
</svg>
    