<svg width="334" height="272" viewBox="0 0 334 272" fill="none" xmlns="http://www.w3.org/2000/svg">
    <g clip-path="url(#clip0_783_2795)">
        <path fill-rule="evenodd" clip-rule="evenodd" d="M177.046 135.247L208.465 143.665L227.524 72.5378C235.71 41.9847 217.73 10.6205 187.363 2.48383C156.997 -5.65287 125.744 12.5192 117.557 43.0722L98.4985 114.2L129.918 122.619L123.565 146.327C120.056 159.422 127.762 172.864 140.776 176.351C153.791 179.839 167.185 172.051 170.694 158.956L177.046 135.247ZM196.991 123.651L211.814 68.3284C217.662 46.5048 204.818 24.1017 183.129 18.2898C161.438 12.4779 139.114 25.458 133.267 47.2816L118.443 102.604L149.862 111.023L139.274 150.538C138.105 154.903 140.673 159.383 145.012 160.545C149.35 161.708 153.814 159.112 154.984 154.747L165.572 115.232L196.991 123.651Z" fill="#2EA4AB" />
        <path fill-rule="evenodd" clip-rule="evenodd" d="M113.559 118.235L129.918 122.618L123.565 146.327C120.056 159.422 127.762 172.863 140.777 176.35C153.791 179.838 167.185 172.05 170.694 158.955L177.047 135.246L208.465 143.665L227.524 72.5377C229.419 65.4642 229.912 58.3472 229.173 51.485L213.108 60.7601C212.917 63.2729 212.491 65.8045 211.814 68.3284L196.991 123.65L165.572 115.231L154.984 154.746C153.815 159.111 149.35 161.707 145.012 160.544C140.674 159.382 138.105 154.901 139.275 150.537L149.863 111.021L133.601 106.664L113.559 118.235Z" fill="#5D5FEF" />
        <path d="M0.604004 220.782H25.444C31.06 220.782 36.004 221.814 40.276 223.878C44.596 225.894 47.932 228.798 50.284 232.59C52.684 236.382 53.884 240.846 53.884 245.982C53.884 251.118 52.684 255.582 50.284 259.374C47.932 263.166 44.596 266.094 40.276 268.158C36.004 270.174 31.06 271.182 25.444 271.182H0.604004V220.782ZM24.724 257.934C28.372 257.934 31.276 256.902 33.436 254.838C35.644 252.726 36.748 249.774 36.748 245.982C36.748 242.19 35.644 239.262 33.436 237.198C31.276 235.086 28.372 234.03 24.724 234.03H17.596V257.934H24.724ZM60.0884 220.782H77.0804V271.182H60.0884V220.782ZM130.26 271.182L130.116 248.214L119.172 266.646H111.684L100.74 249.006V271.182H85.2603V220.782H99.2283L115.644 247.638L131.628 220.782H145.596L145.74 271.182H130.26ZM153.956 220.782H170.948V271.182H153.956V220.782ZM203.391 220.782C208.047 220.782 212.103 221.55 215.559 223.086C219.015 224.622 221.679 226.83 223.551 229.71C225.423 232.59 226.359 235.95 226.359 239.79C226.359 243.63 225.423 246.99 223.551 249.87C221.679 252.75 219.015 254.958 215.559 256.494C212.103 258.03 208.047 258.798 203.391 258.798H196.119V271.182H179.127V220.782H203.391ZM202.311 245.694C204.615 245.694 206.343 245.19 207.495 244.182C208.647 243.126 209.223 241.662 209.223 239.79C209.223 237.918 208.647 236.478 207.495 235.47C206.343 234.414 204.615 233.886 202.311 233.886H196.119V245.694H202.311ZM263.745 262.398H244.593L241.209 271.182H223.929L245.961 220.782H262.665L284.697 271.182H267.129L263.745 262.398ZM259.065 250.158L254.169 237.486L249.273 250.158H259.065ZM314.126 252.894V271.182H297.134V252.678L278.126 220.782H296.054L306.35 238.206L316.718 220.782H333.134L314.126 252.894Z" fill="#2EA4AB" />
    </g>
    <defs>
        <clipPath id="clip0_783_2795">
            <rect width="333" height="271" fill="white" transform="translate(0.5 0.541504)" />
        </clipPath>
    </defs>
</svg>
    