<svg width="270" height="180" viewBox="0 0 270 180" fill="none" xmlns="http://www.w3.org/2000/svg">
<path fill-rule="evenodd" clip-rule="evenodd" d="M166.909 34.8387V79.6313H147.273V94.5622C147.273 102.809 140.679 109.493 132.545 109.493C124.412 109.493 117.818 102.809 117.818 94.5622V79.6313H98.1818V34.8387C98.1818 15.5978 113.567 0 132.545 0C151.524 0 166.909 15.5978 166.909 34.8387ZM157.091 34.8387V69.6774H137.455V94.5622C137.455 97.311 135.257 99.5392 132.545 99.5392C129.834 99.5392 127.636 97.311 127.636 94.5622V69.6774H108V34.8387C108 21.0952 118.989 9.95392 132.545 9.95392C146.101 9.95392 157.091 21.0952 157.091 34.8387ZM0 138.525H20.169C24.7289 138.525 28.7432 139.375 32.2119 141.073C35.7196 142.732 38.4283 145.122 40.338 148.242C42.2867 151.363 43.261 155.036 43.261 159.263C43.261 163.489 42.2867 167.163 40.338 170.283C38.4283 173.404 35.7196 175.813 32.2119 177.512C28.7432 179.171 24.7289 180 20.169 180H0V138.525ZM19.5844 169.098C22.5464 169.098 24.9043 168.249 26.6581 166.55C28.4509 164.812 29.3473 162.383 29.3473 159.263C29.3473 156.142 28.4509 153.733 26.6581 152.034C24.9043 150.296 22.5464 149.427 19.5844 149.427H13.7968V169.098H19.5844ZM48.2987 138.525H62.0955V180H48.2987V138.525ZM105.158 161.099L105.275 180H117.844L117.727 138.525H106.386L93.4076 160.625L80.0786 138.525H68.7371V180H81.3062V161.751L90.1923 176.267H96.2722L105.158 161.099ZM124.515 138.525H138.311V180H124.515V138.525ZM174.534 140.421C171.728 139.157 168.435 138.525 164.654 138.525H144.953V180H158.75V169.809H164.654C168.435 169.809 171.728 169.177 174.534 167.913C177.34 166.649 179.504 164.832 181.024 162.462C182.544 160.092 183.303 157.327 183.303 154.167C183.303 151.007 182.544 148.242 181.024 145.872C179.504 143.502 177.34 141.685 174.534 140.421ZM167.987 157.781C167.051 158.611 165.648 159.026 163.778 159.026H158.75V149.309H163.778C165.648 149.309 167.051 149.743 167.987 150.612C168.922 151.442 169.39 152.627 169.39 154.167C169.39 155.708 168.922 156.912 167.987 157.781ZM213.659 172.772H198.108L195.361 180H181.33L199.219 138.525H212.782L230.671 180H216.406L213.659 172.772ZM209.859 162.699L205.884 152.271L201.908 162.699H209.859ZM254.566 180V164.951L270 138.525H256.671L248.253 152.864L239.893 138.525H225.336L240.77 164.773V180H254.566Z" fill="#2EA4AB"/>
</svg>
