<svg width="288" height="265" viewBox="0 0 288 265" fill="none" xmlns="http://www.w3.org/2000/svg">
    <path fill-rule="evenodd" clip-rule="evenodd" d="M66.3758 21.3928H94.6113V11.9428H57.0439V49.9357H66.3758V21.3928ZM193.397 11.9428V21.3928H221.632V49.9357H230.95V11.9428H193.397ZM66.3758 150.064H57.0439V188.057H94.6113V178.607H66.3758V150.064ZM221.625 178.607H193.389V188.057H230.957V150.064H221.625V178.607Z" fill="url(#paint0_linear_1146_3146)" />
    <path d="M199.794 126.914C205.296 124.929 209.697 120.65 211.891 115.164L216.991 99.0001C218.274 94.7858 217.865 90.2358 215.841 86.3358C213.788 82.5644 210.311 79.8001 206.213 78.6644L204.238 78.0001C202.531 45.5858 176.052 20.2072 144 20.2501C111.977 20.2858 85.5543 45.6215 83.7627 78.0001L82.0345 78.5858C77.8377 79.6929 74.2686 82.4929 72.1595 86.3358C70.1352 90.2358 69.7261 94.7929 71.0098 99.0001L76.1095 115.164C78.3385 120.707 82.8034 125.014 88.3686 127L91.0067 127.914C94.8791 140.093 101.277 151.286 109.769 160.75L115.031 166.664C119.503 171.693 125.174 175.479 131.494 177.664C135.557 179.022 139.803 179.722 144.085 179.75C148.366 179.75 152.62 179.014 156.675 177.586C162.995 175.436 168.667 171.679 173.131 166.664L178.4 160.75C186.865 151.264 193.255 140.079 197.163 127.914L199.794 126.914V126.914ZM207.609 90.9144C208.505 92.4858 208.688 94.3715 208.103 96.0858L203.003 112.75C202.326 114.222 201.275 115.486 199.956 116.414C200.006 116.2 200.006 115.972 199.956 115.75L203.659 90.7501V88.5001C205.246 88.7286 206.671 89.6072 207.609 90.9144ZM194.941 79.2501C195.132 82.4501 194.99 85.6644 194.525 88.8358L193.707 94.7501C187.295 92.5786 180.714 90.9644 174.034 89.9144C173.823 81.1501 173.047 72.4144 171.735 63.7501C180.594 66.0929 188.473 71.2644 194.2 78.5001L194.941 79.2501V79.2501ZM164.738 88.7501C159.553 88.1644 154.207 87.8358 148.282 87.7501V59.7501C152.782 59.9501 157.261 60.4501 161.691 61.2501C163.362 70.3286 164.378 79.5215 164.738 88.7501ZM148.606 50.0001V35.5858C154.32 38.9715 158.34 44.6715 159.638 51.2501C156.182 50.7501 152.232 50.5001 148.606 50.0001V50.0001ZM148.606 167.836V136C153.381 136 157.91 136 162.431 135.25C159.222 153.336 153.544 164 148.606 168.164V167.836V167.836ZM148.606 126.164V97.1644C154.284 97.1644 159.8 97.6644 165.069 98.2501V102.5C165.112 110.243 164.702 117.979 163.835 125.664C158.975 126.164 153.875 126.414 148.606 126.586V126.164V126.164ZM174.204 100C180.411 100.964 186.505 102.586 192.388 104.836L191.562 110.414L190.906 114.164C190.476 116.45 189.919 118.7 189.263 120.914C184.022 122.629 178.654 123.914 173.216 124.75C173.872 117.914 174.281 110.586 174.281 102.914C174.281 101.5 174.204 100.5 174.204 100ZM183.169 48.3358C186.724 52.8358 189.51 57.9072 191.4 63.3358C184.664 58.7072 177.166 55.3215 169.266 53.3358C167.806 45.6072 164.434 38.3858 159.469 32.3358C168.751 35.1929 176.997 40.7643 183.169 48.3358V48.3358ZM84.997 112.336L79.8973 95.6644C79.3119 93.9501 79.4953 92.0715 80.3911 90.5001C81.1952 89.0858 82.4789 88.0144 84.0095 87.5001C83.9672 88.2501 83.9672 89.0001 84.0095 89.7501L87.0567 111.25L87.628 114.914C87.6703 115.164 87.6703 115.414 87.628 115.664C86.5277 114.757 85.6248 113.622 84.997 112.336V112.336ZM121.944 160.336L116.682 154.414C106.496 143 99.7037 128.907 97.0939 113.75L93.4754 88.7501C91.5004 74.7429 95.2882 60.5215 103.95 49.4215C112.612 38.3143 125.393 31.2858 139.31 30.0001V169.914C137.659 169.629 136.037 169.207 134.457 168.664C129.653 167.022 125.343 164.15 121.944 160.336ZM171.319 154.414L166.057 160.336C165.394 161 164.653 161.5 163.997 162.086C168.039 153.193 170.811 143.764 172.229 134.086C176.827 133.457 181.384 132.572 185.884 131.414C182.379 139.857 177.483 147.629 171.403 154.414H171.319Z" fill="url(#paint1_linear_1146_3146)" />
    <g opacity="0.6">
        <path d="M27.248 249.232C26.168 251.56 24.584 253.384 22.496 254.704C20.432 256.024 18.02 256.684 15.26 256.684C13.34 256.684 11.552 256.336 9.896 255.64C8.264 254.944 6.848 253.972 5.648 252.724C4.448 251.452 3.5 249.94 2.804 248.188C2.108 246.412 1.76 244.456 1.76 242.32C1.76 240.184 2.108 238.24 2.804 236.488C3.5 234.712 4.448 233.2 5.648 231.952C6.848 230.68 8.264 229.696 9.896 229C11.552 228.304 13.34 227.956 15.26 227.956C17.948 227.956 20.3 228.58 22.316 229.828C24.332 231.076 25.916 232.792 27.068 234.976L23.396 237.316C22.628 235.708 21.524 234.424 20.084 233.464C18.668 232.48 17.06 231.988 15.26 231.988C14.036 231.988 12.896 232.24 11.84 232.744C10.784 233.224 9.86 233.92 9.068 234.832C8.276 235.72 7.652 236.8 7.196 238.072C6.74 239.344 6.512 240.76 6.512 242.32C6.512 243.88 6.74 245.296 7.196 246.568C7.652 247.84 8.276 248.932 9.068 249.844C9.86 250.732 10.784 251.428 11.84 251.932C12.896 252.412 14.036 252.652 15.26 252.652C17.18 252.652 18.836 252.112 20.228 251.032C21.644 249.952 22.748 248.524 23.54 246.748L27.248 249.232ZM35.0012 251.968H49.1492V256H30.2492V228.64H35.0012V251.968ZM48.643 242.32C48.643 240.184 48.991 238.24 49.687 236.488C50.383 234.712 51.331 233.2 52.531 231.952C53.731 230.68 55.147 229.696 56.779 229C58.435 228.304 60.223 227.956 62.143 227.956C64.039 227.956 65.815 228.304 67.471 229C69.127 229.696 70.555 230.68 71.755 231.952C72.955 233.2 73.903 234.712 74.599 236.488C75.295 238.24 75.643 240.184 75.643 242.32C75.643 244.456 75.295 246.412 74.599 248.188C73.903 249.94 72.955 251.452 71.755 252.724C70.555 253.972 69.127 254.944 67.471 255.64C65.815 256.336 64.039 256.684 62.143 256.684C60.223 256.684 58.435 256.336 56.779 255.64C55.147 254.944 53.731 253.972 52.531 252.724C51.331 251.452 50.383 249.94 49.687 248.188C48.991 246.412 48.643 244.456 48.643 242.32ZM70.891 242.32C70.891 240.76 70.663 239.344 70.207 238.072C69.751 236.8 69.127 235.72 68.335 234.832C67.543 233.92 66.619 233.224 65.563 232.744C64.507 232.24 63.367 231.988 62.143 231.988C60.919 231.988 59.779 232.24 58.723 232.744C57.667 233.224 56.743 233.92 55.951 234.832C55.159 235.72 54.535 236.8 54.079 238.072C53.623 239.344 53.395 240.76 53.395 242.32C53.395 243.88 53.623 245.296 54.079 246.568C54.535 247.84 55.159 248.932 55.951 249.844C56.743 250.732 57.667 251.428 58.723 251.932C59.779 252.412 60.919 252.652 62.143 252.652C63.367 252.652 64.507 252.412 65.563 251.932C66.619 251.428 67.543 250.732 68.335 249.844C69.127 248.932 69.751 247.84 70.207 246.568C70.663 245.296 70.891 243.88 70.891 242.32ZM80.2071 228.64L86.9031 247.036L87.6231 249.268L88.3431 247.036L95.0391 228.64H100.007L89.3511 256H85.8951L75.2391 228.64H80.2071ZM114.624 249.124H103.824L101.016 256H96.1199L107.604 228.64H110.844L122.328 256H117.432L114.624 249.124ZM105.48 245.092H112.968L109.224 235.948L105.48 245.092ZM139.218 256H134.466V228.64H152.826V232.672H139.218V240.556H150.306V244.552H139.218V256ZM168.917 245.92C168.917 244.864 168.773 243.916 168.485 243.076C168.197 242.236 167.789 241.528 167.261 240.952C166.757 240.376 166.145 239.944 165.425 239.656C164.729 239.344 163.973 239.188 163.157 239.188C162.341 239.188 161.573 239.356 160.853 239.692C160.157 240.004 159.545 240.46 159.017 241.06C158.513 241.66 158.117 242.368 157.829 243.184C157.541 244 157.397 244.912 157.397 245.92C157.397 246.928 157.541 247.84 157.829 248.656C158.117 249.472 158.513 250.18 159.017 250.78C159.545 251.38 160.157 251.848 160.853 252.184C161.573 252.496 162.341 252.652 163.157 252.652C163.973 252.652 164.729 252.508 165.425 252.22C166.145 251.908 166.757 251.464 167.261 250.888C167.789 250.312 168.197 249.604 168.485 248.764C168.773 247.924 168.917 246.976 168.917 245.92ZM173.561 235.84V256H168.953V254.092C168.305 254.86 167.441 255.46 166.361 255.892C165.305 256.324 164.237 256.54 163.157 256.54C161.645 256.54 160.253 256.288 158.981 255.784C157.733 255.256 156.641 254.536 155.705 253.624C154.793 252.688 154.073 251.572 153.545 250.276C153.041 248.956 152.789 247.504 152.789 245.92C152.789 244.336 153.041 242.896 153.545 241.6C154.073 240.28 154.793 239.164 155.705 238.252C156.641 237.316 157.733 236.596 158.981 236.092C160.253 235.564 161.645 235.3 163.157 235.3C164.237 235.3 165.293 235.492 166.325 235.876C167.357 236.26 168.233 236.8 168.953 237.496V235.84H173.561ZM191.301 242.32C190.749 241.312 190.041 240.544 189.177 240.016C188.313 239.464 187.305 239.188 186.153 239.188C185.385 239.188 184.665 239.356 183.993 239.692C183.345 240.004 182.769 240.46 182.265 241.06C181.785 241.66 181.401 242.368 181.113 243.184C180.825 244 180.681 244.912 180.681 245.92C180.681 246.928 180.825 247.84 181.113 248.656C181.401 249.472 181.785 250.18 182.265 250.78C182.769 251.38 183.345 251.848 183.993 252.184C184.665 252.496 185.385 252.652 186.153 252.652C187.449 252.652 188.577 252.28 189.537 251.536C190.497 250.768 191.217 249.712 191.697 248.368L195.369 250.348C195.009 251.284 194.529 252.136 193.929 252.904C193.329 253.648 192.633 254.296 191.841 254.848C191.049 255.376 190.173 255.784 189.213 256.072C188.253 256.384 187.233 256.54 186.153 256.54C184.713 256.54 183.369 256.288 182.121 255.784C180.897 255.256 179.829 254.536 178.917 253.624C178.029 252.688 177.333 251.572 176.829 250.276C176.325 248.956 176.073 247.504 176.073 245.92C176.073 244.336 176.325 242.896 176.829 241.6C177.333 240.28 178.029 239.164 178.917 238.252C179.829 237.316 180.897 236.596 182.121 236.092C183.369 235.564 184.713 235.3 186.153 235.3C188.097 235.3 189.801 235.72 191.265 236.56C192.753 237.4 193.929 238.552 194.793 240.016L191.301 242.32ZM214.501 251.5C213.493 253.036 212.185 254.26 210.577 255.172C208.993 256.084 207.265 256.54 205.393 256.54C203.905 256.54 202.537 256.288 201.289 255.784C200.065 255.256 199.009 254.536 198.121 253.624C197.233 252.688 196.549 251.572 196.069 250.276C195.589 248.956 195.349 247.504 195.349 245.92C195.349 244.336 195.601 242.896 196.105 241.6C196.609 240.28 197.293 239.164 198.157 238.252C199.045 237.316 200.077 236.596 201.253 236.092C202.453 235.564 203.725 235.3 205.069 235.3C206.485 235.3 207.781 235.552 208.957 236.056C210.157 236.56 211.189 237.268 212.053 238.18C212.917 239.068 213.589 240.136 214.069 241.384C214.549 242.608 214.789 243.964 214.789 245.452V247.648H200.173C200.269 248.344 200.461 248.992 200.749 249.592C201.061 250.192 201.433 250.72 201.865 251.176C202.321 251.632 202.849 251.992 203.449 252.256C204.049 252.52 204.697 252.652 205.393 252.652C206.617 252.652 207.733 252.304 208.741 251.608C209.773 250.912 210.577 250.024 211.153 248.944L214.501 251.5ZM210.037 243.832C209.773 242.488 209.209 241.384 208.345 240.52C207.481 239.632 206.389 239.188 205.069 239.188C203.845 239.188 202.789 239.608 201.901 240.448C201.013 241.264 200.425 242.392 200.137 243.832H210.037ZM231.217 234.904C230.401 233.968 229.489 233.248 228.481 232.744C227.497 232.24 226.489 231.988 225.457 231.988C224.137 231.988 223.153 232.312 222.505 232.96C221.881 233.608 221.569 234.376 221.569 235.264C221.569 236.08 221.773 236.788 222.181 237.388C222.613 237.964 223.405 238.504 224.557 239.008L228.085 240.556C229.021 240.964 229.897 241.396 230.713 241.852C231.553 242.308 232.285 242.848 232.909 243.472C233.557 244.072 234.061 244.78 234.421 245.596C234.805 246.412 234.997 247.396 234.997 248.548C234.997 249.652 234.769 250.696 234.313 251.68C233.857 252.664 233.209 253.528 232.369 254.272C231.553 255.016 230.557 255.604 229.381 256.036C228.205 256.468 226.909 256.684 225.493 256.684C224.269 256.684 223.117 256.48 222.037 256.072C220.957 255.688 219.985 255.196 219.121 254.596C218.257 253.972 217.501 253.288 216.853 252.544C216.229 251.8 215.737 251.092 215.377 250.42L218.401 247.504C219.097 249.016 220.069 250.252 221.317 251.212C222.589 252.172 223.981 252.652 225.493 252.652C226.957 252.652 228.109 252.28 228.949 251.536C229.813 250.768 230.245 249.772 230.245 248.548C230.245 248.236 230.209 247.912 230.137 247.576C230.089 247.24 229.945 246.904 229.705 246.568C229.465 246.232 229.105 245.884 228.625 245.524C228.145 245.164 227.497 244.816 226.681 244.48L223.081 242.968C221.929 242.488 220.945 241.972 220.129 241.42C219.337 240.844 218.689 240.232 218.185 239.584C217.705 238.936 217.357 238.252 217.141 237.532C216.925 236.812 216.817 236.056 216.817 235.264C216.817 234.232 217.021 233.272 217.429 232.384C217.837 231.496 218.413 230.728 219.157 230.08C219.925 229.408 220.837 228.892 221.893 228.532C222.949 228.148 224.137 227.956 225.457 227.956C227.305 227.956 228.961 228.328 230.425 229.072C231.889 229.816 233.137 230.824 234.169 232.096L231.217 234.904ZM240.839 235.84H236.231V256H240.839V235.84ZM236.015 228.568H241.055V233.608H236.015V228.568ZM248.026 256.756C248.65 257.764 249.442 258.544 250.402 259.096C251.386 259.672 252.334 259.96 253.246 259.96C254.878 259.96 256.222 259.516 257.278 258.628C258.334 257.74 258.862 256.384 258.862 254.56V253.372C258.214 254.14 257.35 254.74 256.27 255.172C255.214 255.604 254.146 255.82 253.066 255.82C251.578 255.82 250.198 255.58 248.926 255.1C247.678 254.62 246.586 253.936 245.65 253.048C244.738 252.136 244.018 251.056 243.49 249.808C242.962 248.536 242.698 247.12 242.698 245.56C242.698 244 242.962 242.596 243.49 241.348C244.018 240.076 244.738 238.996 245.65 238.108C246.586 237.196 247.678 236.5 248.926 236.02C250.198 235.54 251.578 235.3 253.066 235.3C254.146 235.3 255.202 235.492 256.234 235.876C257.266 236.26 258.142 236.8 258.862 237.496V235.84H263.47V254.308C263.47 255.844 263.23 257.212 262.75 258.412C262.27 259.612 261.586 260.62 260.698 261.436C259.81 262.252 258.73 262.864 257.458 263.272C256.21 263.704 254.806 263.92 253.246 263.92C251.494 263.92 249.826 263.488 248.242 262.624C246.658 261.784 245.362 260.632 244.354 259.168L248.026 256.756ZM258.826 245.56C258.826 244.528 258.67 243.616 258.358 242.824C258.07 242.032 257.662 241.372 257.134 240.844C256.606 240.292 255.994 239.884 255.298 239.62C254.602 239.332 253.858 239.188 253.066 239.188C252.274 239.188 251.53 239.344 250.834 239.656C250.138 239.944 249.526 240.364 248.998 240.916C248.47 241.468 248.05 242.14 247.738 242.932C247.45 243.724 247.306 244.6 247.306 245.56C247.306 246.544 247.45 247.432 247.738 248.224C248.05 248.992 248.47 249.652 248.998 250.204C249.526 250.756 250.138 251.188 250.834 251.5C251.53 251.788 252.274 251.932 253.066 251.932C253.858 251.932 254.602 251.8 255.298 251.536C255.994 251.248 256.606 250.84 257.134 250.312C257.662 249.76 258.07 249.088 258.358 248.296C258.67 247.504 258.826 246.592 258.826 245.56ZM271.67 235.84V237.532C272.366 236.86 273.206 236.32 274.19 235.912C275.198 235.504 276.158 235.3 277.07 235.3C278.894 235.3 280.406 235.684 281.606 236.452C282.806 237.196 283.754 238.204 284.45 239.476C284.834 240.196 285.086 241 285.206 241.888C285.35 242.776 285.422 243.724 285.422 244.732V256H280.778V244.732C280.778 244.084 280.73 243.484 280.634 242.932C280.538 242.356 280.418 241.888 280.274 241.528C280.01 240.832 279.602 240.28 279.05 239.872C278.498 239.464 277.838 239.26 277.07 239.26C276.47 239.26 275.894 239.38 275.342 239.62C274.79 239.86 274.286 240.184 273.83 240.592C273.374 240.976 272.99 241.444 272.678 241.996C272.366 242.524 272.138 243.088 271.994 243.688C271.898 244.072 271.814 244.588 271.742 245.236C271.694 245.884 271.67 246.7 271.67 247.684V256H267.062V235.84H271.67Z" fill="black" />
        <path d="M27.248 249.232C26.168 251.56 24.584 253.384 22.496 254.704C20.432 256.024 18.02 256.684 15.26 256.684C13.34 256.684 11.552 256.336 9.896 255.64C8.264 254.944 6.848 253.972 5.648 252.724C4.448 251.452 3.5 249.94 2.804 248.188C2.108 246.412 1.76 244.456 1.76 242.32C1.76 240.184 2.108 238.24 2.804 236.488C3.5 234.712 4.448 233.2 5.648 231.952C6.848 230.68 8.264 229.696 9.896 229C11.552 228.304 13.34 227.956 15.26 227.956C17.948 227.956 20.3 228.58 22.316 229.828C24.332 231.076 25.916 232.792 27.068 234.976L23.396 237.316C22.628 235.708 21.524 234.424 20.084 233.464C18.668 232.48 17.06 231.988 15.26 231.988C14.036 231.988 12.896 232.24 11.84 232.744C10.784 233.224 9.86 233.92 9.068 234.832C8.276 235.72 7.652 236.8 7.196 238.072C6.74 239.344 6.512 240.76 6.512 242.32C6.512 243.88 6.74 245.296 7.196 246.568C7.652 247.84 8.276 248.932 9.068 249.844C9.86 250.732 10.784 251.428 11.84 251.932C12.896 252.412 14.036 252.652 15.26 252.652C17.18 252.652 18.836 252.112 20.228 251.032C21.644 249.952 22.748 248.524 23.54 246.748L27.248 249.232ZM35.0012 251.968H49.1492V256H30.2492V228.64H35.0012V251.968ZM48.643 242.32C48.643 240.184 48.991 238.24 49.687 236.488C50.383 234.712 51.331 233.2 52.531 231.952C53.731 230.68 55.147 229.696 56.779 229C58.435 228.304 60.223 227.956 62.143 227.956C64.039 227.956 65.815 228.304 67.471 229C69.127 229.696 70.555 230.68 71.755 231.952C72.955 233.2 73.903 234.712 74.599 236.488C75.295 238.24 75.643 240.184 75.643 242.32C75.643 244.456 75.295 246.412 74.599 248.188C73.903 249.94 72.955 251.452 71.755 252.724C70.555 253.972 69.127 254.944 67.471 255.64C65.815 256.336 64.039 256.684 62.143 256.684C60.223 256.684 58.435 256.336 56.779 255.64C55.147 254.944 53.731 253.972 52.531 252.724C51.331 251.452 50.383 249.94 49.687 248.188C48.991 246.412 48.643 244.456 48.643 242.32ZM70.891 242.32C70.891 240.76 70.663 239.344 70.207 238.072C69.751 236.8 69.127 235.72 68.335 234.832C67.543 233.92 66.619 233.224 65.563 232.744C64.507 232.24 63.367 231.988 62.143 231.988C60.919 231.988 59.779 232.24 58.723 232.744C57.667 233.224 56.743 233.92 55.951 234.832C55.159 235.72 54.535 236.8 54.079 238.072C53.623 239.344 53.395 240.76 53.395 242.32C53.395 243.88 53.623 245.296 54.079 246.568C54.535 247.84 55.159 248.932 55.951 249.844C56.743 250.732 57.667 251.428 58.723 251.932C59.779 252.412 60.919 252.652 62.143 252.652C63.367 252.652 64.507 252.412 65.563 251.932C66.619 251.428 67.543 250.732 68.335 249.844C69.127 248.932 69.751 247.84 70.207 246.568C70.663 245.296 70.891 243.88 70.891 242.32ZM80.2071 228.64L86.9031 247.036L87.6231 249.268L88.3431 247.036L95.0391 228.64H100.007L89.3511 256H85.8951L75.2391 228.64H80.2071ZM114.624 249.124H103.824L101.016 256H96.1199L107.604 228.64H110.844L122.328 256H117.432L114.624 249.124ZM105.48 245.092H112.968L109.224 235.948L105.48 245.092ZM139.218 256H134.466V228.64H152.826V232.672H139.218V240.556H150.306V244.552H139.218V256ZM168.917 245.92C168.917 244.864 168.773 243.916 168.485 243.076C168.197 242.236 167.789 241.528 167.261 240.952C166.757 240.376 166.145 239.944 165.425 239.656C164.729 239.344 163.973 239.188 163.157 239.188C162.341 239.188 161.573 239.356 160.853 239.692C160.157 240.004 159.545 240.46 159.017 241.06C158.513 241.66 158.117 242.368 157.829 243.184C157.541 244 157.397 244.912 157.397 245.92C157.397 246.928 157.541 247.84 157.829 248.656C158.117 249.472 158.513 250.18 159.017 250.78C159.545 251.38 160.157 251.848 160.853 252.184C161.573 252.496 162.341 252.652 163.157 252.652C163.973 252.652 164.729 252.508 165.425 252.22C166.145 251.908 166.757 251.464 167.261 250.888C167.789 250.312 168.197 249.604 168.485 248.764C168.773 247.924 168.917 246.976 168.917 245.92ZM173.561 235.84V256H168.953V254.092C168.305 254.86 167.441 255.46 166.361 255.892C165.305 256.324 164.237 256.54 163.157 256.54C161.645 256.54 160.253 256.288 158.981 255.784C157.733 255.256 156.641 254.536 155.705 253.624C154.793 252.688 154.073 251.572 153.545 250.276C153.041 248.956 152.789 247.504 152.789 245.92C152.789 244.336 153.041 242.896 153.545 241.6C154.073 240.28 154.793 239.164 155.705 238.252C156.641 237.316 157.733 236.596 158.981 236.092C160.253 235.564 161.645 235.3 163.157 235.3C164.237 235.3 165.293 235.492 166.325 235.876C167.357 236.26 168.233 236.8 168.953 237.496V235.84H173.561ZM191.301 242.32C190.749 241.312 190.041 240.544 189.177 240.016C188.313 239.464 187.305 239.188 186.153 239.188C185.385 239.188 184.665 239.356 183.993 239.692C183.345 240.004 182.769 240.46 182.265 241.06C181.785 241.66 181.401 242.368 181.113 243.184C180.825 244 180.681 244.912 180.681 245.92C180.681 246.928 180.825 247.84 181.113 248.656C181.401 249.472 181.785 250.18 182.265 250.78C182.769 251.38 183.345 251.848 183.993 252.184C184.665 252.496 185.385 252.652 186.153 252.652C187.449 252.652 188.577 252.28 189.537 251.536C190.497 250.768 191.217 249.712 191.697 248.368L195.369 250.348C195.009 251.284 194.529 252.136 193.929 252.904C193.329 253.648 192.633 254.296 191.841 254.848C191.049 255.376 190.173 255.784 189.213 256.072C188.253 256.384 187.233 256.54 186.153 256.54C184.713 256.54 183.369 256.288 182.121 255.784C180.897 255.256 179.829 254.536 178.917 253.624C178.029 252.688 177.333 251.572 176.829 250.276C176.325 248.956 176.073 247.504 176.073 245.92C176.073 244.336 176.325 242.896 176.829 241.6C177.333 240.28 178.029 239.164 178.917 238.252C179.829 237.316 180.897 236.596 182.121 236.092C183.369 235.564 184.713 235.3 186.153 235.3C188.097 235.3 189.801 235.72 191.265 236.56C192.753 237.4 193.929 238.552 194.793 240.016L191.301 242.32ZM214.501 251.5C213.493 253.036 212.185 254.26 210.577 255.172C208.993 256.084 207.265 256.54 205.393 256.54C203.905 256.54 202.537 256.288 201.289 255.784C200.065 255.256 199.009 254.536 198.121 253.624C197.233 252.688 196.549 251.572 196.069 250.276C195.589 248.956 195.349 247.504 195.349 245.92C195.349 244.336 195.601 242.896 196.105 241.6C196.609 240.28 197.293 239.164 198.157 238.252C199.045 237.316 200.077 236.596 201.253 236.092C202.453 235.564 203.725 235.3 205.069 235.3C206.485 235.3 207.781 235.552 208.957 236.056C210.157 236.56 211.189 237.268 212.053 238.18C212.917 239.068 213.589 240.136 214.069 241.384C214.549 242.608 214.789 243.964 214.789 245.452V247.648H200.173C200.269 248.344 200.461 248.992 200.749 249.592C201.061 250.192 201.433 250.72 201.865 251.176C202.321 251.632 202.849 251.992 203.449 252.256C204.049 252.52 204.697 252.652 205.393 252.652C206.617 252.652 207.733 252.304 208.741 251.608C209.773 250.912 210.577 250.024 211.153 248.944L214.501 251.5ZM210.037 243.832C209.773 242.488 209.209 241.384 208.345 240.52C207.481 239.632 206.389 239.188 205.069 239.188C203.845 239.188 202.789 239.608 201.901 240.448C201.013 241.264 200.425 242.392 200.137 243.832H210.037ZM231.217 234.904C230.401 233.968 229.489 233.248 228.481 232.744C227.497 232.24 226.489 231.988 225.457 231.988C224.137 231.988 223.153 232.312 222.505 232.96C221.881 233.608 221.569 234.376 221.569 235.264C221.569 236.08 221.773 236.788 222.181 237.388C222.613 237.964 223.405 238.504 224.557 239.008L228.085 240.556C229.021 240.964 229.897 241.396 230.713 241.852C231.553 242.308 232.285 242.848 232.909 243.472C233.557 244.072 234.061 244.78 234.421 245.596C234.805 246.412 234.997 247.396 234.997 248.548C234.997 249.652 234.769 250.696 234.313 251.68C233.857 252.664 233.209 253.528 232.369 254.272C231.553 255.016 230.557 255.604 229.381 256.036C228.205 256.468 226.909 256.684 225.493 256.684C224.269 256.684 223.117 256.48 222.037 256.072C220.957 255.688 219.985 255.196 219.121 254.596C218.257 253.972 217.501 253.288 216.853 252.544C216.229 251.8 215.737 251.092 215.377 250.42L218.401 247.504C219.097 249.016 220.069 250.252 221.317 251.212C222.589 252.172 223.981 252.652 225.493 252.652C226.957 252.652 228.109 252.28 228.949 251.536C229.813 250.768 230.245 249.772 230.245 248.548C230.245 248.236 230.209 247.912 230.137 247.576C230.089 247.24 229.945 246.904 229.705 246.568C229.465 246.232 229.105 245.884 228.625 245.524C228.145 245.164 227.497 244.816 226.681 244.48L223.081 242.968C221.929 242.488 220.945 241.972 220.129 241.42C219.337 240.844 218.689 240.232 218.185 239.584C217.705 238.936 217.357 238.252 217.141 237.532C216.925 236.812 216.817 236.056 216.817 235.264C216.817 234.232 217.021 233.272 217.429 232.384C217.837 231.496 218.413 230.728 219.157 230.08C219.925 229.408 220.837 228.892 221.893 228.532C222.949 228.148 224.137 227.956 225.457 227.956C227.305 227.956 228.961 228.328 230.425 229.072C231.889 229.816 233.137 230.824 234.169 232.096L231.217 234.904ZM240.839 235.84H236.231V256H240.839V235.84ZM236.015 228.568H241.055V233.608H236.015V228.568ZM248.026 256.756C248.65 257.764 249.442 258.544 250.402 259.096C251.386 259.672 252.334 259.96 253.246 259.96C254.878 259.96 256.222 259.516 257.278 258.628C258.334 257.74 258.862 256.384 258.862 254.56V253.372C258.214 254.14 257.35 254.74 256.27 255.172C255.214 255.604 254.146 255.82 253.066 255.82C251.578 255.82 250.198 255.58 248.926 255.1C247.678 254.62 246.586 253.936 245.65 253.048C244.738 252.136 244.018 251.056 243.49 249.808C242.962 248.536 242.698 247.12 242.698 245.56C242.698 244 242.962 242.596 243.49 241.348C244.018 240.076 244.738 238.996 245.65 238.108C246.586 237.196 247.678 236.5 248.926 236.02C250.198 235.54 251.578 235.3 253.066 235.3C254.146 235.3 255.202 235.492 256.234 235.876C257.266 236.26 258.142 236.8 258.862 237.496V235.84H263.47V254.308C263.47 255.844 263.23 257.212 262.75 258.412C262.27 259.612 261.586 260.62 260.698 261.436C259.81 262.252 258.73 262.864 257.458 263.272C256.21 263.704 254.806 263.92 253.246 263.92C251.494 263.92 249.826 263.488 248.242 262.624C246.658 261.784 245.362 260.632 244.354 259.168L248.026 256.756ZM258.826 245.56C258.826 244.528 258.67 243.616 258.358 242.824C258.07 242.032 257.662 241.372 257.134 240.844C256.606 240.292 255.994 239.884 255.298 239.62C254.602 239.332 253.858 239.188 253.066 239.188C252.274 239.188 251.53 239.344 250.834 239.656C250.138 239.944 249.526 240.364 248.998 240.916C248.47 241.468 248.05 242.14 247.738 242.932C247.45 243.724 247.306 244.6 247.306 245.56C247.306 246.544 247.45 247.432 247.738 248.224C248.05 248.992 248.47 249.652 248.998 250.204C249.526 250.756 250.138 251.188 250.834 251.5C251.53 251.788 252.274 251.932 253.066 251.932C253.858 251.932 254.602 251.8 255.298 251.536C255.994 251.248 256.606 250.84 257.134 250.312C257.662 249.76 258.07 249.088 258.358 248.296C258.67 247.504 258.826 246.592 258.826 245.56ZM271.67 235.84V237.532C272.366 236.86 273.206 236.32 274.19 235.912C275.198 235.504 276.158 235.3 277.07 235.3C278.894 235.3 280.406 235.684 281.606 236.452C282.806 237.196 283.754 238.204 284.45 239.476C284.834 240.196 285.086 241 285.206 241.888C285.35 242.776 285.422 243.724 285.422 244.732V256H280.778V244.732C280.778 244.084 280.73 243.484 280.634 242.932C280.538 242.356 280.418 241.888 280.274 241.528C280.01 240.832 279.602 240.28 279.05 239.872C278.498 239.464 277.838 239.26 277.07 239.26C276.47 239.26 275.894 239.38 275.342 239.62C274.79 239.86 274.286 240.184 273.83 240.592C273.374 240.976 272.99 241.444 272.678 241.996C272.366 242.524 272.138 243.088 271.994 243.688C271.898 244.072 271.814 244.588 271.742 245.236C271.694 245.884 271.67 246.7 271.67 247.684V256H267.062V235.84H271.67Z" fill="url(#paint2_linear_1146_3146)" />
    </g>
    <defs>
        <linearGradient id="paint0_linear_1146_3146" x1="155.665" y1="90.0882" x2="70.9832" y2="42.8178" gradientUnits="userSpaceOnUse">
            <stop stop-color="#00D1C9" />
            <stop offset="1" stop-color="#00E25E" />
        </linearGradient>
        <linearGradient id="paint1_linear_1146_3146" x1="153.89" y1="91.0234" x2="79.9211" y2="52.3695" gradientUnits="userSpaceOnUse">
            <stop stop-color="#00D1C9" />
            <stop offset="1" stop-color="#00E25E" />
        </linearGradient>
        <linearGradient id="paint2_linear_1146_3146" x1="163.249" y1="242.193" x2="152.246" y2="198.652" gradientUnits="userSpaceOnUse">
            <stop stop-color="#00D1C9" />
            <stop offset="1" stop-color="#00E25E" />
        </linearGradient>
    </defs>
</svg>
    