<svg width="360" height="360" viewBox="0 0 360 360" fill="black" xmlns="http://www.w3.org/2000/svg">
<g>
<path fill-rule="evenodd" clip-rule="evenodd" d="M180 360C279.411 360 360 279.411 360 180C360 80.5887 279.411 0 180 0C80.5887 0 0 80.5887 0 180C0 279.411 80.5887 360 180 360ZM207.994 252.872C208.538 255.799 211.148 258.863 213.723 259.608C214.842 259.938 216.153 260.084 216.62 259.951C217.087 259.805 217.867 259.685 218.343 259.685C220.717 259.685 223.55 255.846 228.067 246.495C235.544 231.034 240.207 215.259 242.538 197.565C243.802 187.983 243.489 168.129 241.912 157.66C239.363 140.733 234.19 124.474 226.644 109.651C222.299 101.171 212.24 94.0128 207.724 107.556C207.724 108.177 209.575 112.458 211.838 117.078C222.388 138.56 226.631 156.499 226.631 179.532C226.631 203.372 221.836 223.02 210.801 244.361C208.075 249.641 207.634 250.965 207.994 252.872ZM177.35 233.909C176.21 237.547 179.055 242.39 183.01 243.543C188.881 245.257 193.03 240.95 198.939 227.061C210.488 199.935 211.864 170.298 202.852 142.683C200.126 134.335 193.077 119.606 190.805 117.519C187.531 114.515 181.305 115.09 178.807 118.625C176.184 122.34 176.39 123.772 180.906 132.998C187.639 146.75 190.313 156.152 191.727 171.056C193.445 189.196 189.927 207.674 181.481 224.906C179.488 228.981 177.628 233.035 177.35 233.909ZM146.221 220.963C146.795 223.569 148.895 226.148 151.338 227.25C152.43 227.738 154.269 228.012 155.417 227.85C159.197 227.335 161.065 225.317 164.841 217.655C171.436 204.289 173.801 194.347 173.823 179.858C173.848 165.755 171.316 154.763 165.145 142.079C161.13 133.829 158.803 131.575 154.307 131.575C151.633 131.575 150.823 131.897 148.912 133.688C145.047 137.339 145.149 139.177 149.718 148.421C160.118 169.462 160.007 190.22 149.366 211.762C146.474 217.629 145.874 219.378 146.221 220.963ZM116.978 206.354C117.638 208.638 119.845 211.265 121.777 212.071C125.998 213.811 130.022 211.84 133.622 206.26C143.847 190.447 143.847 169.136 133.626 153.178C130.099 147.671 127.464 145.957 123.62 146.685C119.095 147.53 115.722 152.488 116.926 156.537C117.218 157.502 118.486 159.996 119.75 162.078C123.487 168.219 124.357 171.51 124.357 179.537C124.357 187.563 123.483 190.846 119.75 196.991C116.849 201.769 116.249 203.792 116.978 206.354Z" fill="current"/>
</g>
</svg>
